<svg xmlns="http://www.w3.org/2000/svg" viewBox="0 0 100 100">
  <defs>
    <linearGradient id="g" x1="0%" y1="0%" x2="100%" y2="100%">
      <stop offset="0%" style="stop-color:#8B5CF6"/>
      <stop offset="100%" style="stop-color:#D946EF"/>
    </linearGradient>
  </defs>
  <rect width="100" height="100" rx="20" fill="url(#g)"/>
  <g fill="white" opacity="0.95">
    <rect x="18" y="22" width="28" height="22" rx="3"/>
    <rect x="54" y="22" width="28" height="22" rx="3"/>
    <rect x="18" y="52" width="28" height="22" rx="3"/>
    <rect x="54" y="52" width="28" height="22" rx="3"/>
    <path d="M24 38 l8-6 l6 4 l8-10 v14 H24z" fill="url(#g)" opacity="0.5"/>
    <path d="M60 38 l8-6 l6 4 l8-10 v14 H60z" fill="url(#g)" opacity="0.5"/>
    <path d="M24 68 l8-6 l6 4 l8-10 v14 H24z" fill="url(#g)" opacity="0.5"/>
    <path d="M60 68 l8-6 l6 4 l8-10 v14 H60z" fill="url(#g)" opacity="0.5"/>
  </g>
</svg>
